#!OML:ASF F:\VICON\USERDATA\INSTALL\rory3\rory3.ASF
:FULLY-SPECIFIED
:DEGREES
1415
root -0.237055 18.1985 -2.8063 -0.46566 12.366 1.12877
lowerback 9.2028 -0.0705688 -1.21591
upperback 1.87594 -0.19514 0.237135
thorax -3.20711 -0.0826761 0.952392
lowerneck -13.9751 -0.329535 -7.80714
upperneck 6.60327 0.259909 7.40668
head 4.2224 0.369597 3.58811
rclavicle -4.69132e-014 7.95139e-016
rhumerus -31.0713 4.51734 -36.3821
rradius 53.2376
rwrist 9.03966
rhand -30.9928 7.7144
rfingers 7.12502
rthumb -4.27615 -22.2224
lclavicle -4.69132e-014 7.95139e-016
lhumerus -16.98 13.1973 23.0869
lradius 57.4064
lwrist -4.70377
lhand -32.6133 8.8777
lfingers 7.12502
lthumb -5.84086 38.7772
rfemur 2.61586 17.4403 9.34305
rtibia 20.2199
rfoot -22.7059 -23.372
rtoes -9.4795
lfemur -8.14991 -13.2134 -3.5592
ltibia 14.5121
lfoot -6.35203 9.92271
ltoes -13.9289
1416
root -0.241343 18.1922 -2.80813 -0.467396 13.1504 1.1642
lowerback 9.2448 0.0133275 -1.28303
upperback 1.87327 -0.0933331 0.154679
thorax -3.23577 -0.0313766 0.892896
lowerneck -14.0782 -0.349888 -7.96854
upperneck 6.66483 0.239956 7.68424
head 4.25953 0.374017 3.70242
rclavicle -6.99474e-015 -6.26172e-015
rhumerus -30.896 5.5742 -37.0639
rradius 54.227
rwrist 8.83749
rhand -30.6745 8.03819
rfingers 7.12502
rthumb -3.96879 -21.9046
lclavicle -6.99474e-015 -6.26172e-015
lhumerus -17.4417 12.2769 23.5425
lradius 58.6022
lwrist -5.19454
lhand -32.4556 8.00986
lfingers 7.12502
lthumb -5.68865 37.9135
rfemur 2.88724 16.9272 9.41881
rtibia 20.2424
rfoot -22.9034 -23.5653
rtoes -9.55763
lfemur -8.62029 -13.4425 -3.55301
ltibia 14.7845
lfoot -6.15709 9.42447
ltoes -14.5936
1417
root -0.247823 18.1846 -2.80702 -0.566802 13.8147 0.965199
lowerback 9.30697 0.136851 -1.15412
upperback 1.94036 0.082253 0.124001
thorax -3.20485 0.0543467 0.767754
lowerneck -14.3986 -0.378125 -8.04262
upperneck 6.81563 0.212066 7.88939
head 4.36012 0.376528 3.78222
rclavicle -2.16551e-014 2.98177e-016
rhumerus -30.7091 6.56596 -37.704
rradius 55.1976
rwrist 8.9289
rhand -30.0407 7.51892
rfingers 7.12502
rthumb -3.35681 -22.4344
lclavicle -2.16551e-014 2.98177e-016
lhumerus -17.8599 11.4463 23.9318
lradius 59.8445
lwrist -5.59646
lhand -32.4035 7.09355
lfingers 7.12502
lthumb -5.63835 36.9985
rfemur 3.189 16.5803 9.7778
rtibia 20.23
rfoot -23.0493 -23.846
rtoes -9.56266
lfemur -8.98396 -13.6432 -3.28431
ltibia 15.0311
lfoot -6.01698 8.97463
ltoes -14.7874
1418
root -0.252331 18.1772 -2.80587 -0.643872 14.5027 0.976178
lowerback 9.33837 0.259785 -1.25299
upperback 2.00149 0.233891 0.0515493
thorax -3.16224 0.130017 0.730332
lowerneck -14.6815 -0.387968 -7.99694
upperneck 7.03538 0.196783 7.92842
head 4.47492 0.377623 3.79134
rclavicle -3.97942e-014 -1.68967e-015
rhumerus -30.5101 7.66146 -38.3642
rradius 55.9996
rwrist 9.25132
rhand -29.819 6.874
rfingers 7.12502
rthumb -3.14271 -23.0826
lclavicle -3.97942e-014 -1.68967e-015
lhumerus -18.4034 10.5364 24.2424
lradius 61.21
lwrist -5.89363
lhand -32.0715 6.30099
lfingers 7.12502
lthumb -5.31773 36.2143
rfemur 3.54935 16.2336 9.90208
rtibia 20.1911
rfoot -23.2749 -24.0652
rtoes -9.29406
lfemur -9.32597 -13.9284 -3.26275
ltibia 15.2752
lfoot -5.93941 8.56725
ltoes -14.8115
1419
root -0.257697 18.1728 -2.80256 -0.635929 15.2074 0.873036
lowerback 9.18478 0.382175 -1.21814
upperback 1.96066 0.39988 -0.00160789
thorax -3.12247 0.212042 0.63659
lowerneck -14.6234 -0.39351 -7.85207
upperneck 7.19515 0.163181 7.80403
head 4.51752 0.355937 3.7269
rclavicle 5.19573e-014 -4.87022e-015
rhumerus -30.428 8.80951 -39.062
rradius 56.7477
rwrist 9.26834
rhand -30.28 7.55086
rfingers 7.12502
rthumb -3.58786 -22.3987
lclavicle 5.19573e-014 -4.87022e-015
lhumerus -18.8283 9.73328 24.6848
lradius 62.4227
lwrist -6.4077
lhand -31.7887 6.13365
lfingers 7.12502
lthumb -5.04467 36.0536
rfemur 3.81374 15.929 10.1626
rtibia 20.1217
rfoot -23.4482 -24.4338
rtoes -9.35933
lfemur -9.78309 -14.12 -3.09153
ltibia 15.5016
lfoot -5.77496 8.11437
ltoes -15.2699
1420
root -0.26302 18.1694 -2.79912 -0.625724 15.8775 0.733299
lowerback 9.06564 0.554956 -1.12031
upperback 1.886 0.638235 -0.0435056
thorax -3.13708 0.329878 0.510871
lowerneck -14.2789 -0.425064 -7.64612
upperneck 7.03206 0.0934303 7.52796
head 4.4169 0.304227 3.59521
rclavicle 1.70023e-014 1.11816e-015
rhumerus -30.4185 9.84771 -39.6996
rradius 57.5977
rwrist 9.08869
rhand -30.2265 7.83419
rfingers 7.12502
rthumb -3.53622 -22.1162
lclavicle 1.70023e-014 1.11816e-015
lhumerus -18.9833 8.97058 25.2806
lradius 63.4488
lwrist -7.09194
lhand -31.6054 6.08287
lfingers 7.12502
lthumb -4.86773 36.007
rfemur 4.02449 15.6203 10.4466
rtibia 20.0806
rfoot -23.6248 -24.7317
rtoes -9.23496
lfemur -10.1875 -14.3266 -2.86852
ltibia 15.6386
lfoot -5.67654 7.68668
ltoes -15.0855
